# xmcd
#
# Track frame offsets: 
#        180
#        13226
#        27089
#        40917
#        53281
#        67950
#        88698
#        102682
#        116289
#        126734
#        137732
#        150194
#        166112
#
# Disc length: 2778 seconds
#
# Revision: 2
# Processed by: cddbd v1.5.2PL0 Copyright (c) Steve Scherf et al.
# Submitted via: ExactAudioCopyFreeDBPlugin 1.0
#
DISCID=a00ad80d
DTITLE=Fink - Loch in der Welt {Ixixes Records,xxs3}
DYEAR=1998
DGENRE=Folk/Rock
TTITLE0=Loch in der Welt
TTITLE1=Diese Stelle
TTITLE2=Hund
TTITLE3=Als einer einmal nicht kam
TTITLE4=Meine Ecke
TTITLE5=Neuer Anzug
TTITLE6=Fisch im Maul
TTITLE7=Sie wollen uns erzählen
TTITLE8=Samstag
TTITLE9=Strich in den Tag
TTITLE10=Mann ohne Schmerzen
TTITLE11=Wir werden sehen
TTITLE12=Sag mir
EXTD=
EXTT0=
EXTT1=
EXTT2=
EXTT3=
EXTT4=
EXTT5=
EXTT6=
EXTT7=
EXTT8=
EXTT9=
EXTT10=
EXTT11=
EXTT12=
PLAYORDER=
